<mxfile host="app.diagrams.net" modified="2021-10-23T17:33:58.155Z" agent="5.0 (Windows)" etag="35zmABWOl19pQEPHWdPj" version="15.5.0" type="github" pages="2">
  <diagram id="Q1kiwo1vKjcwwtcRmz3a" name="non connecté">
    <mxGraphModel dx="1106" dy="572" grid="1" gridSize="10" guides="1" tooltips="1" connect="1" arrows="1" fold="1" page="1" pageScale="1" pageWidth="827" pageHeight="1169" math="0" shadow="0">
      <root>
        <mxCell id="0" />
        <mxCell id="1" parent="0" />
        <mxCell id="fiFQlGLODUkrKZmWzUM1-84" value="" style="edgeStyle=entityRelationEdgeStyle;startArrow=none;endArrow=none;segment=10;curved=1;rounded=1;sketch=0;" edge="1" parent="1" source="fiFQlGLODUkrKZmWzUM1-85" target="fiFQlGLODUkrKZmWzUM1-86">
          <mxGeometry relative="1" as="geometry" />
        </mxCell>
        <mxCell id="fiFQlGLODUkrKZmWzUM1-85" value="&lt;font style=&quot;font-size: 12px&quot;&gt;&lt;b&gt;&lt;font style=&quot;font-size: 12px&quot;&gt;Accueil&lt;/font&gt;&lt;/b&gt;&lt;/font&gt;" style="ellipse;whiteSpace=wrap;html=1;align=center;treeFolding=1;treeMoving=1;newEdgeStyle={&quot;edgeStyle&quot;:&quot;entityRelationEdgeStyle&quot;,&quot;startArrow&quot;:&quot;none&quot;,&quot;endArrow&quot;:&quot;none&quot;,&quot;segment&quot;:10,&quot;curved&quot;:1};rounded=1;sketch=0;fillColor=#3AC9FF;strokeColor=#3AC9FF;gradientColor=#FFFFFF;" vertex="1" parent="1">
          <mxGeometry x="140" y="485" width="100" height="40" as="geometry" />
        </mxCell>
        <mxCell id="fiFQlGLODUkrKZmWzUM1-86" value="Mon compte" style="whiteSpace=wrap;html=1;shape=partialRectangle;top=0;left=0;bottom=1;right=0;points=[[0,1],[1,1]];fillColor=#3AC9FF;align=center;verticalAlign=bottom;routingCenterY=0.5;snapToPoint=1;autosize=1;treeFolding=1;treeMoving=1;newEdgeStyle={&quot;edgeStyle&quot;:&quot;entityRelationEdgeStyle&quot;,&quot;startArrow&quot;:&quot;none&quot;,&quot;endArrow&quot;:&quot;none&quot;,&quot;segment&quot;:10,&quot;curved&quot;:1};rounded=1;sketch=0;strokeColor=#6c8ebf;gradientColor=#FFFFFF;fontStyle=1" vertex="1" parent="1">
          <mxGeometry x="300" y="475" width="100" height="20" as="geometry" />
        </mxCell>
        <mxCell id="fiFQlGLODUkrKZmWzUM1-87" value="" style="edgeStyle=entityRelationEdgeStyle;startArrow=none;endArrow=none;segment=10;curved=1;rounded=1;sketch=0;" edge="1" parent="1" source="fiFQlGLODUkrKZmWzUM1-85" target="fiFQlGLODUkrKZmWzUM1-88">
          <mxGeometry relative="1" as="geometry">
            <mxPoint x="370" y="319" as="sourcePoint" />
          </mxGeometry>
        </mxCell>
        <mxCell id="fiFQlGLODUkrKZmWzUM1-88" value="Liste des tournois" style="whiteSpace=wrap;html=1;shape=partialRectangle;top=0;left=0;bottom=1;right=0;points=[[0,1],[1,1]];fillColor=#3AC9FF;align=center;verticalAlign=bottom;routingCenterY=0.5;snapToPoint=1;autosize=1;treeFolding=1;treeMoving=1;newEdgeStyle={&quot;edgeStyle&quot;:&quot;entityRelationEdgeStyle&quot;,&quot;startArrow&quot;:&quot;none&quot;,&quot;endArrow&quot;:&quot;none&quot;,&quot;segment&quot;:10,&quot;curved&quot;:1};rounded=1;sketch=0;strokeColor=#6c8ebf;gradientColor=#FFFFFF;fontStyle=1" vertex="1" parent="1">
          <mxGeometry x="284" y="395" width="130" height="20" as="geometry" />
        </mxCell>
        <mxCell id="fiFQlGLODUkrKZmWzUM1-89" value="" style="edgeStyle=entityRelationEdgeStyle;startArrow=none;endArrow=none;segment=10;curved=1;rounded=1;sketch=0;" edge="1" parent="1" source="fiFQlGLODUkrKZmWzUM1-85" target="fiFQlGLODUkrKZmWzUM1-90">
          <mxGeometry relative="1" as="geometry">
            <mxPoint x="379" y="289" as="sourcePoint" />
          </mxGeometry>
        </mxCell>
        <mxCell id="fiFQlGLODUkrKZmWzUM1-90" value="Langues" style="whiteSpace=wrap;html=1;shape=partialRectangle;top=0;left=0;bottom=1;right=0;points=[[0,1],[1,1]];fillColor=#3AC9FF;align=center;verticalAlign=bottom;routingCenterY=0.5;snapToPoint=1;autosize=1;treeFolding=1;treeMoving=1;newEdgeStyle={&quot;edgeStyle&quot;:&quot;entityRelationEdgeStyle&quot;,&quot;startArrow&quot;:&quot;none&quot;,&quot;endArrow&quot;:&quot;none&quot;,&quot;segment&quot;:10,&quot;curved&quot;:1};rounded=1;sketch=0;strokeColor=#666666;gradientColor=#FFFFFF;fontStyle=1" vertex="1" parent="1">
          <mxGeometry x="310" y="565" width="80" height="20" as="geometry" />
        </mxCell>
        <mxCell id="fiFQlGLODUkrKZmWzUM1-91" value="" style="edgeStyle=entityRelationEdgeStyle;startArrow=none;endArrow=none;segment=10;curved=1;rounded=1;sketch=0;" edge="1" parent="1" source="fiFQlGLODUkrKZmWzUM1-88" target="fiFQlGLODUkrKZmWzUM1-48">
          <mxGeometry relative="1" as="geometry">
            <mxPoint x="470" y="375" as="sourcePoint" />
            <mxPoint x="460" y="395" as="targetPoint" />
          </mxGeometry>
        </mxCell>
        <mxCell id="fiFQlGLODUkrKZmWzUM1-92" value="Tournoi terminé" style="whiteSpace=wrap;html=1;shape=partialRectangle;top=0;left=0;bottom=1;right=0;points=[[0,1],[1,1]];fillColor=#3AC9FF;align=center;verticalAlign=bottom;routingCenterY=0.5;snapToPoint=1;autosize=1;treeFolding=1;treeMoving=1;newEdgeStyle={&quot;edgeStyle&quot;:&quot;entityRelationEdgeStyle&quot;,&quot;startArrow&quot;:&quot;none&quot;,&quot;endArrow&quot;:&quot;none&quot;,&quot;segment&quot;:10,&quot;curved&quot;:1};rounded=1;sketch=0;strokeColor=#666666;gradientColor=#FFFFFF;fontStyle=1" vertex="1" parent="1">
          <mxGeometry x="439" y="415" width="120" height="20" as="geometry" />
        </mxCell>
        <mxCell id="fiFQlGLODUkrKZmWzUM1-93" value="" style="edgeStyle=entityRelationEdgeStyle;startArrow=none;endArrow=none;segment=10;curved=1;rounded=1;sketch=0;" edge="1" parent="1" source="fiFQlGLODUkrKZmWzUM1-92" target="fiFQlGLODUkrKZmWzUM1-107">
          <mxGeometry relative="1" as="geometry">
            <mxPoint x="635" y="405" as="sourcePoint" />
            <mxPoint x="675" y="435" as="targetPoint" />
          </mxGeometry>
        </mxCell>
        <mxCell id="fiFQlGLODUkrKZmWzUM1-94" value="" style="edgeStyle=entityRelationEdgeStyle;startArrow=none;endArrow=none;segment=10;curved=1;rounded=1;sketch=0;" edge="1" parent="1" source="fiFQlGLODUkrKZmWzUM1-88" target="fiFQlGLODUkrKZmWzUM1-92">
          <mxGeometry relative="1" as="geometry">
            <mxPoint x="490" y="425" as="sourcePoint" />
            <mxPoint x="525" y="395" as="targetPoint" />
          </mxGeometry>
        </mxCell>
        <mxCell id="fiFQlGLODUkrKZmWzUM1-96" value="" style="edgeStyle=entityRelationEdgeStyle;startArrow=none;endArrow=none;segment=10;curved=1;rounded=1;sketch=0;" edge="1" parent="1" target="fiFQlGLODUkrKZmWzUM1-97" source="fiFQlGLODUkrKZmWzUM1-90">
          <mxGeometry relative="1" as="geometry">
            <mxPoint x="350" y="580" as="sourcePoint" />
          </mxGeometry>
        </mxCell>
        <mxCell id="fiFQlGLODUkrKZmWzUM1-97" value="Français (par défaut)" style="whiteSpace=wrap;html=1;shape=partialRectangle;top=0;left=0;bottom=1;right=0;points=[[0,1],[1,1]];fillColor=#3AC9FF;align=center;verticalAlign=bottom;routingCenterY=0.5;snapToPoint=1;autosize=1;treeFolding=1;treeMoving=1;newEdgeStyle={&quot;edgeStyle&quot;:&quot;entityRelationEdgeStyle&quot;,&quot;startArrow&quot;:&quot;none&quot;,&quot;endArrow&quot;:&quot;none&quot;,&quot;segment&quot;:10,&quot;curved&quot;:1};rounded=1;sketch=0;strokeColor=#666666;gradientColor=#FFFFFF;fontStyle=1" vertex="1" parent="1">
          <mxGeometry x="440" y="560" width="150" height="20" as="geometry" />
        </mxCell>
        <mxCell id="fiFQlGLODUkrKZmWzUM1-98" value="" style="edgeStyle=entityRelationEdgeStyle;startArrow=none;endArrow=none;segment=10;curved=1;rounded=1;sketch=0;" edge="1" parent="1" source="fiFQlGLODUkrKZmWzUM1-90" target="fiFQlGLODUkrKZmWzUM1-99">
          <mxGeometry relative="1" as="geometry">
            <mxPoint x="460" y="575" as="sourcePoint" />
          </mxGeometry>
        </mxCell>
        <mxCell id="fiFQlGLODUkrKZmWzUM1-99" value="Anglais" style="whiteSpace=wrap;html=1;shape=partialRectangle;top=0;left=0;bottom=1;right=0;points=[[0,1],[1,1]];fillColor=#3AC9FF;align=center;verticalAlign=bottom;routingCenterY=0.5;snapToPoint=1;autosize=1;treeFolding=1;treeMoving=1;newEdgeStyle={&quot;edgeStyle&quot;:&quot;entityRelationEdgeStyle&quot;,&quot;startArrow&quot;:&quot;none&quot;,&quot;endArrow&quot;:&quot;none&quot;,&quot;segment&quot;:10,&quot;curved&quot;:1};rounded=1;sketch=0;strokeColor=#666666;gradientColor=#FFFFFF;fontStyle=1" vertex="1" parent="1">
          <mxGeometry x="440" y="600" width="70" height="20" as="geometry" />
        </mxCell>
        <mxCell id="fiFQlGLODUkrKZmWzUM1-100" value="" style="edgeStyle=entityRelationEdgeStyle;startArrow=none;endArrow=none;segment=10;curved=1;rounded=1;sketch=0;" edge="1" parent="1" source="fiFQlGLODUkrKZmWzUM1-86" target="fiFQlGLODUkrKZmWzUM1-101">
          <mxGeometry relative="1" as="geometry">
            <mxPoint x="457.5" y="445" as="sourcePoint" />
          </mxGeometry>
        </mxCell>
        <mxCell id="fiFQlGLODUkrKZmWzUM1-101" value="Se connecter" style="whiteSpace=wrap;html=1;shape=partialRectangle;top=0;left=0;bottom=1;right=0;points=[[0,1],[1,1]];fillColor=#3AC9FF;align=center;verticalAlign=bottom;routingCenterY=0.5;snapToPoint=1;autosize=1;treeFolding=1;treeMoving=1;newEdgeStyle={&quot;edgeStyle&quot;:&quot;entityRelationEdgeStyle&quot;,&quot;startArrow&quot;:&quot;none&quot;,&quot;endArrow&quot;:&quot;none&quot;,&quot;segment&quot;:10,&quot;curved&quot;:1};rounded=1;sketch=0;strokeColor=#666666;gradientColor=#FFFFFF;fontStyle=1" vertex="1" parent="1">
          <mxGeometry x="432.5" y="455" width="110" height="20" as="geometry" />
        </mxCell>
        <mxCell id="fiFQlGLODUkrKZmWzUM1-102" value="Formulaire d&#39;inscription" style="whiteSpace=wrap;html=1;shape=partialRectangle;top=0;left=0;bottom=1;right=0;points=[[0,1],[1,1]];fillColor=#3AC9FF;align=center;verticalAlign=bottom;routingCenterY=0.5;snapToPoint=1;autosize=1;treeFolding=1;treeMoving=1;newEdgeStyle={&quot;edgeStyle&quot;:&quot;entityRelationEdgeStyle&quot;,&quot;startArrow&quot;:&quot;none&quot;,&quot;endArrow&quot;:&quot;none&quot;,&quot;segment&quot;:10,&quot;curved&quot;:1};rounded=1;sketch=0;strokeColor=#666666;gradientColor=#FFFFFF;fontStyle=1" vertex="1" parent="1">
          <mxGeometry x="545" y="495" width="170" height="20" as="geometry" />
        </mxCell>
        <mxCell id="fiFQlGLODUkrKZmWzUM1-103" value="" style="edgeStyle=entityRelationEdgeStyle;startArrow=none;endArrow=none;segment=10;curved=1;rounded=1;sketch=0;" edge="1" parent="1" source="fiFQlGLODUkrKZmWzUM1-86" target="fiFQlGLODUkrKZmWzUM1-105">
          <mxGeometry relative="1" as="geometry">
            <mxPoint x="480" y="445" as="sourcePoint" />
            <mxPoint x="508" y="425" as="targetPoint" />
          </mxGeometry>
        </mxCell>
        <mxCell id="fiFQlGLODUkrKZmWzUM1-104" value="" style="edgeStyle=entityRelationEdgeStyle;startArrow=none;endArrow=none;segment=10;curved=1;rounded=1;sketch=0;" edge="1" parent="1" source="fiFQlGLODUkrKZmWzUM1-105" target="fiFQlGLODUkrKZmWzUM1-102">
          <mxGeometry relative="1" as="geometry">
            <mxPoint x="440" y="525" as="sourcePoint" />
            <mxPoint x="508" y="425" as="targetPoint" />
          </mxGeometry>
        </mxCell>
        <mxCell id="fiFQlGLODUkrKZmWzUM1-105" value="S&#39;inscrire" style="whiteSpace=wrap;html=1;shape=partialRectangle;top=0;left=0;bottom=1;right=0;points=[[0,1],[1,1]];fillColor=#3AC9FF;align=center;verticalAlign=bottom;routingCenterY=0.5;snapToPoint=1;autosize=1;treeFolding=1;treeMoving=1;newEdgeStyle={&quot;edgeStyle&quot;:&quot;entityRelationEdgeStyle&quot;,&quot;startArrow&quot;:&quot;none&quot;,&quot;endArrow&quot;:&quot;none&quot;,&quot;segment&quot;:10,&quot;curved&quot;:1};rounded=1;sketch=0;strokeColor=#666666;gradientColor=#FFFFFF;fontStyle=1" vertex="1" parent="1">
          <mxGeometry x="435" y="495" width="90" height="20" as="geometry" />
        </mxCell>
        <mxCell id="fiFQlGLODUkrKZmWzUM1-106" value="" style="edgeStyle=entityRelationEdgeStyle;startArrow=none;endArrow=none;segment=10;curved=1;rounded=1;sketch=0;" edge="1" parent="1" source="fiFQlGLODUkrKZmWzUM1-102" target="fiFQlGLODUkrKZmWzUM1-105">
          <mxGeometry relative="1" as="geometry">
            <mxPoint x="480" y="445" as="sourcePoint" />
            <mxPoint x="508" y="425" as="targetPoint" />
          </mxGeometry>
        </mxCell>
        <mxCell id="fiFQlGLODUkrKZmWzUM1-48" value="Tournoi à venir" style="whiteSpace=wrap;html=1;shape=partialRectangle;top=0;left=0;bottom=1;right=0;points=[[0,1],[1,1]];fillColor=#3AC9FF;align=center;verticalAlign=bottom;routingCenterY=0.5;snapToPoint=1;autosize=1;treeFolding=1;treeMoving=1;newEdgeStyle={&quot;edgeStyle&quot;:&quot;entityRelationEdgeStyle&quot;,&quot;startArrow&quot;:&quot;none&quot;,&quot;endArrow&quot;:&quot;none&quot;,&quot;segment&quot;:10,&quot;curved&quot;:1};rounded=1;sketch=0;strokeColor=#3AC9FF;gradientColor=#FFFFFF;fontStyle=1" vertex="1" parent="1">
          <mxGeometry x="434" y="365" width="120" height="20" as="geometry" />
        </mxCell>
        <mxCell id="fiFQlGLODUkrKZmWzUM1-107" value="Classement" style="whiteSpace=wrap;html=1;shape=partialRectangle;top=0;left=0;bottom=1;right=0;points=[[0,1],[1,1]];fillColor=#3AC9FF;align=center;verticalAlign=bottom;routingCenterY=0.5;snapToPoint=1;autosize=1;treeFolding=1;treeMoving=1;newEdgeStyle={&quot;edgeStyle&quot;:&quot;entityRelationEdgeStyle&quot;,&quot;startArrow&quot;:&quot;none&quot;,&quot;endArrow&quot;:&quot;none&quot;,&quot;segment&quot;:10,&quot;curved&quot;:1};rounded=1;sketch=0;strokeColor=#666666;gradientColor=#FFFFFF;fontStyle=1" vertex="1" parent="1">
          <mxGeometry x="590" y="415" width="100" height="20" as="geometry" />
        </mxCell>
        <mxCell id="fiFQlGLODUkrKZmWzUM1-108" value="" style="edgeStyle=entityRelationEdgeStyle;startArrow=none;endArrow=none;segment=10;curved=1;rounded=1;sketch=0;" edge="1" parent="1" target="fiFQlGLODUkrKZmWzUM1-109" source="fiFQlGLODUkrKZmWzUM1-48">
          <mxGeometry relative="1" as="geometry">
            <mxPoint x="585" y="445" as="sourcePoint" />
            <mxPoint x="685" y="445" as="targetPoint" />
          </mxGeometry>
        </mxCell>
        <mxCell id="fiFQlGLODUkrKZmWzUM1-109" value="S&#39;inscrire" style="whiteSpace=wrap;html=1;shape=partialRectangle;top=0;left=0;bottom=1;right=0;points=[[0,1],[1,1]];fillColor=#3AC9FF;align=center;verticalAlign=bottom;routingCenterY=0.5;snapToPoint=1;autosize=1;treeFolding=1;treeMoving=1;newEdgeStyle={&quot;edgeStyle&quot;:&quot;entityRelationEdgeStyle&quot;,&quot;startArrow&quot;:&quot;none&quot;,&quot;endArrow&quot;:&quot;none&quot;,&quot;segment&quot;:10,&quot;curved&quot;:1};rounded=1;sketch=0;strokeColor=#3AC9FF;gradientColor=#FFFFFF;fontStyle=1" vertex="1" collapsed="1" parent="1">
          <mxGeometry x="585" y="365" width="90" height="20" as="geometry" />
        </mxCell>
        <mxCell id="fiFQlGLODUkrKZmWzUM1-110" value="" style="edgeStyle=entityRelationEdgeStyle;startArrow=none;endArrow=none;segment=10;curved=1;rounded=1;sketch=0;" edge="1" parent="1" target="fiFQlGLODUkrKZmWzUM1-111">
          <mxGeometry relative="1" as="geometry">
            <mxPoint x="660" y="385" as="sourcePoint" />
            <mxPoint x="695" y="455" as="targetPoint" />
          </mxGeometry>
        </mxCell>
        <mxCell id="fiFQlGLODUkrKZmWzUM1-111" value="Connexion" style="whiteSpace=wrap;html=1;shape=partialRectangle;top=0;left=0;bottom=1;right=0;points=[[0,1],[1,1]];fillColor=#3AC9FF;align=center;verticalAlign=bottom;routingCenterY=0.5;snapToPoint=1;autosize=1;treeFolding=1;treeMoving=1;newEdgeStyle={&quot;edgeStyle&quot;:&quot;entityRelationEdgeStyle&quot;,&quot;startArrow&quot;:&quot;none&quot;,&quot;endArrow&quot;:&quot;none&quot;,&quot;segment&quot;:10,&quot;curved&quot;:1};rounded=1;sketch=0;strokeColor=#3AC9FF;gradientColor=#FFFFFF;fontStyle=1" vertex="1" parent="1">
          <mxGeometry x="715" y="365" width="90" height="20" as="geometry" />
        </mxCell>
        <mxCell id="fiFQlGLODUkrKZmWzUM1-112" value="&lt;div&gt;Formulaire de connexion&lt;/div&gt;" style="whiteSpace=wrap;html=1;shape=partialRectangle;top=0;left=0;bottom=1;right=0;points=[[0,1],[1,1]];fillColor=#3AC9FF;align=center;verticalAlign=bottom;routingCenterY=0.5;snapToPoint=1;autosize=1;treeFolding=1;treeMoving=1;newEdgeStyle={&quot;edgeStyle&quot;:&quot;entityRelationEdgeStyle&quot;,&quot;startArrow&quot;:&quot;none&quot;,&quot;endArrow&quot;:&quot;none&quot;,&quot;segment&quot;:10,&quot;curved&quot;:1};rounded=1;sketch=0;strokeColor=#666666;gradientColor=#FFFFFF;fontStyle=1" vertex="1" parent="1">
          <mxGeometry x="549" y="455" width="170" height="20" as="geometry" />
        </mxCell>
        <mxCell id="fiFQlGLODUkrKZmWzUM1-113" value="" style="edgeStyle=entityRelationEdgeStyle;startArrow=none;endArrow=none;segment=10;curved=1;rounded=1;sketch=0;" edge="1" parent="1" source="fiFQlGLODUkrKZmWzUM1-112" target="fiFQlGLODUkrKZmWzUM1-101">
          <mxGeometry relative="1" as="geometry">
            <mxPoint x="420" y="505" as="sourcePoint" />
            <mxPoint x="448" y="485" as="targetPoint" />
          </mxGeometry>
        </mxCell>
        <mxCell id="fiFQlGLODUkrKZmWzUM1-114" value="validation " style="whiteSpace=wrap;html=1;shape=partialRectangle;top=0;left=0;bottom=1;right=0;points=[[0,1],[1,1]];fillColor=#3AC9FF;align=center;verticalAlign=bottom;routingCenterY=0.5;snapToPoint=1;autosize=1;treeFolding=1;treeMoving=1;newEdgeStyle={&quot;edgeStyle&quot;:&quot;entityRelationEdgeStyle&quot;,&quot;startArrow&quot;:&quot;none&quot;,&quot;endArrow&quot;:&quot;none&quot;,&quot;segment&quot;:10,&quot;curved&quot;:1};rounded=1;sketch=0;strokeColor=#666666;gradientColor=#FFFFFF;fontStyle=1" vertex="1" parent="1">
          <mxGeometry x="715" y="495" width="90" height="20" as="geometry" />
        </mxCell>
        <mxCell id="fiFQlGLODUkrKZmWzUM1-115" value="" style="edgeStyle=entityRelationEdgeStyle;startArrow=none;endArrow=none;segment=10;curved=1;rounded=1;sketch=0;" edge="1" parent="1" source="fiFQlGLODUkrKZmWzUM1-114" target="fiFQlGLODUkrKZmWzUM1-102">
          <mxGeometry relative="1" as="geometry">
            <mxPoint x="559" y="485" as="sourcePoint" />
            <mxPoint x="548" y="485" as="targetPoint" />
          </mxGeometry>
        </mxCell>
        <mxCell id="fiFQlGLODUkrKZmWzUM1-116" value="" style="edgeStyle=entityRelationEdgeStyle;startArrow=none;endArrow=none;segment=10;curved=1;rounded=1;sketch=0;" edge="1" parent="1" source="fiFQlGLODUkrKZmWzUM1-114">
          <mxGeometry relative="1" as="geometry">
            <mxPoint x="730" y="515" as="sourcePoint" />
            <mxPoint x="780" y="515" as="targetPoint" />
          </mxGeometry>
        </mxCell>
        <mxCell id="fiFQlGLODUkrKZmWzUM1-117" value="téléchargement du client Epic Games" style="whiteSpace=wrap;html=1;shape=partialRectangle;top=0;left=0;bottom=1;right=0;points=[[0,1],[1,1]];fillColor=#3AC9FF;align=center;verticalAlign=bottom;routingCenterY=0.5;snapToPoint=1;autosize=1;treeFolding=1;treeMoving=1;newEdgeStyle={&quot;edgeStyle&quot;:&quot;entityRelationEdgeStyle&quot;,&quot;startArrow&quot;:&quot;none&quot;,&quot;endArrow&quot;:&quot;none&quot;,&quot;segment&quot;:10,&quot;curved&quot;:1};rounded=1;sketch=0;strokeColor=#666666;gradientColor=#FFFFFF;fontStyle=1" vertex="1" parent="1">
          <mxGeometry x="820" y="495" width="240" height="20" as="geometry" />
        </mxCell>
        <mxCell id="fiFQlGLODUkrKZmWzUM1-119" value="" style="edgeStyle=entityRelationEdgeStyle;startArrow=none;endArrow=none;segment=10;curved=1;rounded=1;sketch=0;" edge="1" parent="1" source="fiFQlGLODUkrKZmWzUM1-114" target="fiFQlGLODUkrKZmWzUM1-117">
          <mxGeometry relative="1" as="geometry">
            <mxPoint x="760" y="510" as="sourcePoint" />
            <mxPoint x="795" y="530" as="targetPoint" />
          </mxGeometry>
        </mxCell>
      </root>
    </mxGraphModel>
  </diagram>
  <diagram id="P9nmxpy3xN0ZeBVEByqj" name="connecté">
    <mxGraphModel dx="632" dy="327" grid="1" gridSize="10" guides="1" tooltips="1" connect="1" arrows="1" fold="1" page="1" pageScale="1" pageWidth="827" pageHeight="1169" math="0" shadow="0">
      <root>
        <mxCell id="O_8s_zXtl1Wq45kXyOu1-0" />
        <mxCell id="O_8s_zXtl1Wq45kXyOu1-1" parent="O_8s_zXtl1Wq45kXyOu1-0" />
        <mxCell id="TK5X9V41BlfFNVEwXNrX-0" value="" style="edgeStyle=entityRelationEdgeStyle;startArrow=none;endArrow=none;segment=10;curved=1;rounded=1;sketch=0;" edge="1" parent="O_8s_zXtl1Wq45kXyOu1-1" source="TK5X9V41BlfFNVEwXNrX-1" target="TK5X9V41BlfFNVEwXNrX-2">
          <mxGeometry relative="1" as="geometry" />
        </mxCell>
        <mxCell id="TK5X9V41BlfFNVEwXNrX-1" value="&lt;div&gt;Accueil&lt;/div&gt;&lt;div&gt;&lt;span style=&quot;font-weight: normal&quot;&gt;Mes tournois&lt;/span&gt;&lt;/div&gt;" style="ellipse;whiteSpace=wrap;html=1;align=center;treeFolding=1;treeMoving=1;newEdgeStyle={&quot;edgeStyle&quot;:&quot;entityRelationEdgeStyle&quot;,&quot;startArrow&quot;:&quot;none&quot;,&quot;endArrow&quot;:&quot;none&quot;,&quot;segment&quot;:10,&quot;curved&quot;:1};rounded=1;sketch=0;fillColor=#3AC9FF;strokeColor=#3AC9FF;gradientColor=#FFFFFF;fontStyle=1" vertex="1" parent="O_8s_zXtl1Wq45kXyOu1-1">
          <mxGeometry x="280" y="990" width="100" height="40" as="geometry" />
        </mxCell>
        <mxCell id="TK5X9V41BlfFNVEwXNrX-2" value="Mon compte" style="whiteSpace=wrap;html=1;shape=partialRectangle;top=0;left=0;bottom=1;right=0;points=[[0,1],[1,1]];fillColor=#3AC9FF;align=center;verticalAlign=bottom;routingCenterY=0.5;snapToPoint=1;autosize=1;treeFolding=1;treeMoving=1;newEdgeStyle={&quot;edgeStyle&quot;:&quot;entityRelationEdgeStyle&quot;,&quot;startArrow&quot;:&quot;none&quot;,&quot;endArrow&quot;:&quot;none&quot;,&quot;segment&quot;:10,&quot;curved&quot;:1};rounded=1;sketch=0;strokeColor=#6c8ebf;gradientColor=#FFFFFF;fontStyle=1" vertex="1" parent="O_8s_zXtl1Wq45kXyOu1-1">
          <mxGeometry x="430" y="980" width="100" height="20" as="geometry" />
        </mxCell>
        <mxCell id="TK5X9V41BlfFNVEwXNrX-3" value="" style="edgeStyle=entityRelationEdgeStyle;startArrow=none;endArrow=none;segment=10;curved=1;rounded=1;sketch=0;" edge="1" parent="O_8s_zXtl1Wq45kXyOu1-1" source="TK5X9V41BlfFNVEwXNrX-1" target="TK5X9V41BlfFNVEwXNrX-4">
          <mxGeometry relative="1" as="geometry">
            <mxPoint x="510" y="824" as="sourcePoint" />
          </mxGeometry>
        </mxCell>
        <mxCell id="TK5X9V41BlfFNVEwXNrX-4" value="&lt;div&gt;Rechercher un &lt;br&gt;&lt;/div&gt;&lt;div&gt;tournois&lt;/div&gt;" style="whiteSpace=wrap;html=1;shape=partialRectangle;top=0;left=0;bottom=1;right=0;points=[[0,1],[1,1]];fillColor=#3AC9FF;align=center;verticalAlign=bottom;routingCenterY=0.5;snapToPoint=1;autosize=1;treeFolding=1;treeMoving=1;newEdgeStyle={&quot;edgeStyle&quot;:&quot;entityRelationEdgeStyle&quot;,&quot;startArrow&quot;:&quot;none&quot;,&quot;endArrow&quot;:&quot;none&quot;,&quot;segment&quot;:10,&quot;curved&quot;:1};rounded=1;sketch=0;strokeColor=#6c8ebf;gradientColor=#FFFFFF;fontStyle=1" vertex="1" parent="O_8s_zXtl1Wq45kXyOu1-1">
          <mxGeometry x="430" y="890" width="120" height="30" as="geometry" />
        </mxCell>
        <mxCell id="TK5X9V41BlfFNVEwXNrX-5" value="" style="edgeStyle=entityRelationEdgeStyle;startArrow=none;endArrow=none;segment=10;curved=1;rounded=1;sketch=0;" edge="1" parent="O_8s_zXtl1Wq45kXyOu1-1" source="TK5X9V41BlfFNVEwXNrX-1" target="TK5X9V41BlfFNVEwXNrX-6">
          <mxGeometry relative="1" as="geometry">
            <mxPoint x="519" y="794" as="sourcePoint" />
          </mxGeometry>
        </mxCell>
        <mxCell id="TK5X9V41BlfFNVEwXNrX-6" value="Langues" style="whiteSpace=wrap;html=1;shape=partialRectangle;top=0;left=0;bottom=1;right=0;points=[[0,1],[1,1]];fillColor=#3AC9FF;align=center;verticalAlign=bottom;routingCenterY=0.5;snapToPoint=1;autosize=1;treeFolding=1;treeMoving=1;newEdgeStyle={&quot;edgeStyle&quot;:&quot;entityRelationEdgeStyle&quot;,&quot;startArrow&quot;:&quot;none&quot;,&quot;endArrow&quot;:&quot;none&quot;,&quot;segment&quot;:10,&quot;curved&quot;:1};rounded=1;sketch=0;strokeColor=#666666;gradientColor=#FFFFFF;fontStyle=1" vertex="1" parent="O_8s_zXtl1Wq45kXyOu1-1">
          <mxGeometry x="435" y="1090" width="80" height="20" as="geometry" />
        </mxCell>
        <mxCell id="TK5X9V41BlfFNVEwXNrX-7" value="" style="edgeStyle=entityRelationEdgeStyle;startArrow=none;endArrow=none;segment=10;curved=1;rounded=1;sketch=0;" edge="1" parent="O_8s_zXtl1Wq45kXyOu1-1" source="TK5X9V41BlfFNVEwXNrX-4" target="TK5X9V41BlfFNVEwXNrX-18">
          <mxGeometry relative="1" as="geometry">
            <mxPoint x="610" y="880" as="sourcePoint" />
            <mxPoint x="600" y="900" as="targetPoint" />
          </mxGeometry>
        </mxCell>
        <mxCell id="TK5X9V41BlfFNVEwXNrX-8" value="Tournoi terminé" style="whiteSpace=wrap;html=1;shape=partialRectangle;top=0;left=0;bottom=1;right=0;points=[[0,1],[1,1]];fillColor=#3AC9FF;align=center;verticalAlign=bottom;routingCenterY=0.5;snapToPoint=1;autosize=1;treeFolding=1;treeMoving=1;newEdgeStyle={&quot;edgeStyle&quot;:&quot;entityRelationEdgeStyle&quot;,&quot;startArrow&quot;:&quot;none&quot;,&quot;endArrow&quot;:&quot;none&quot;,&quot;segment&quot;:10,&quot;curved&quot;:1};rounded=1;sketch=0;strokeColor=#666666;gradientColor=#FFFFFF;fontStyle=1" vertex="1" parent="O_8s_zXtl1Wq45kXyOu1-1">
          <mxGeometry x="574" y="920" width="120" height="20" as="geometry" />
        </mxCell>
        <mxCell id="TK5X9V41BlfFNVEwXNrX-9" value="" style="edgeStyle=entityRelationEdgeStyle;startArrow=none;endArrow=none;segment=10;curved=1;rounded=1;sketch=0;" edge="1" parent="O_8s_zXtl1Wq45kXyOu1-1" source="TK5X9V41BlfFNVEwXNrX-8" target="TK5X9V41BlfFNVEwXNrX-19">
          <mxGeometry relative="1" as="geometry">
            <mxPoint x="775" y="910" as="sourcePoint" />
            <mxPoint x="815" y="940" as="targetPoint" />
          </mxGeometry>
        </mxCell>
        <mxCell id="TK5X9V41BlfFNVEwXNrX-10" value="" style="edgeStyle=entityRelationEdgeStyle;startArrow=none;endArrow=none;segment=10;curved=1;rounded=1;sketch=0;" edge="1" parent="O_8s_zXtl1Wq45kXyOu1-1" source="TK5X9V41BlfFNVEwXNrX-4" target="TK5X9V41BlfFNVEwXNrX-8">
          <mxGeometry relative="1" as="geometry">
            <mxPoint x="630" y="930" as="sourcePoint" />
            <mxPoint x="665" y="900" as="targetPoint" />
          </mxGeometry>
        </mxCell>
        <mxCell id="TK5X9V41BlfFNVEwXNrX-11" value="" style="edgeStyle=entityRelationEdgeStyle;startArrow=none;endArrow=none;segment=10;curved=1;rounded=1;sketch=0;" edge="1" parent="O_8s_zXtl1Wq45kXyOu1-1" source="TK5X9V41BlfFNVEwXNrX-6" target="TK5X9V41BlfFNVEwXNrX-12">
          <mxGeometry relative="1" as="geometry">
            <mxPoint x="490" y="1085" as="sourcePoint" />
          </mxGeometry>
        </mxCell>
        <mxCell id="TK5X9V41BlfFNVEwXNrX-12" value="Français (par défaut)" style="whiteSpace=wrap;html=1;shape=partialRectangle;top=0;left=0;bottom=1;right=0;points=[[0,1],[1,1]];fillColor=#3AC9FF;align=center;verticalAlign=bottom;routingCenterY=0.5;snapToPoint=1;autosize=1;treeFolding=1;treeMoving=1;newEdgeStyle={&quot;edgeStyle&quot;:&quot;entityRelationEdgeStyle&quot;,&quot;startArrow&quot;:&quot;none&quot;,&quot;endArrow&quot;:&quot;none&quot;,&quot;segment&quot;:10,&quot;curved&quot;:1};rounded=1;sketch=0;strokeColor=#666666;gradientColor=#FFFFFF;fontStyle=1" vertex="1" parent="O_8s_zXtl1Wq45kXyOu1-1">
          <mxGeometry x="574" y="1080" width="150" height="20" as="geometry" />
        </mxCell>
        <mxCell id="TK5X9V41BlfFNVEwXNrX-13" value="" style="edgeStyle=entityRelationEdgeStyle;startArrow=none;endArrow=none;segment=10;curved=1;rounded=1;sketch=0;" edge="1" parent="O_8s_zXtl1Wq45kXyOu1-1" source="TK5X9V41BlfFNVEwXNrX-6" target="TK5X9V41BlfFNVEwXNrX-14">
          <mxGeometry relative="1" as="geometry">
            <mxPoint x="600" y="1080" as="sourcePoint" />
          </mxGeometry>
        </mxCell>
        <mxCell id="TK5X9V41BlfFNVEwXNrX-14" value="Anglais" style="whiteSpace=wrap;html=1;shape=partialRectangle;top=0;left=0;bottom=1;right=0;points=[[0,1],[1,1]];fillColor=#3AC9FF;align=center;verticalAlign=bottom;routingCenterY=0.5;snapToPoint=1;autosize=1;treeFolding=1;treeMoving=1;newEdgeStyle={&quot;edgeStyle&quot;:&quot;entityRelationEdgeStyle&quot;,&quot;startArrow&quot;:&quot;none&quot;,&quot;endArrow&quot;:&quot;none&quot;,&quot;segment&quot;:10,&quot;curved&quot;:1};rounded=1;sketch=0;strokeColor=#666666;gradientColor=#FFFFFF;fontStyle=1" vertex="1" parent="O_8s_zXtl1Wq45kXyOu1-1">
          <mxGeometry x="574" y="1110" width="70" height="20" as="geometry" />
        </mxCell>
        <mxCell id="TK5X9V41BlfFNVEwXNrX-15" value="" style="edgeStyle=entityRelationEdgeStyle;startArrow=none;endArrow=none;segment=10;curved=1;rounded=1;sketch=0;" edge="1" parent="O_8s_zXtl1Wq45kXyOu1-1" source="TK5X9V41BlfFNVEwXNrX-2" target="TK5X9V41BlfFNVEwXNrX-16">
          <mxGeometry relative="1" as="geometry">
            <mxPoint x="597.5" y="950" as="sourcePoint" />
          </mxGeometry>
        </mxCell>
        <mxCell id="TK5X9V41BlfFNVEwXNrX-16" value="Parametres" style="whiteSpace=wrap;html=1;shape=partialRectangle;top=0;left=0;bottom=1;right=0;points=[[0,1],[1,1]];fillColor=#3AC9FF;align=center;verticalAlign=bottom;routingCenterY=0.5;snapToPoint=1;autosize=1;treeFolding=1;treeMoving=1;newEdgeStyle={&quot;edgeStyle&quot;:&quot;entityRelationEdgeStyle&quot;,&quot;startArrow&quot;:&quot;none&quot;,&quot;endArrow&quot;:&quot;none&quot;,&quot;segment&quot;:10,&quot;curved&quot;:1};rounded=1;sketch=0;strokeColor=#666666;gradientColor=#FFFFFF;fontStyle=1" vertex="1" parent="O_8s_zXtl1Wq45kXyOu1-1">
          <mxGeometry x="569" y="1000" width="100" height="20" as="geometry" />
        </mxCell>
        <mxCell id="TK5X9V41BlfFNVEwXNrX-17" value="" style="edgeStyle=entityRelationEdgeStyle;startArrow=none;endArrow=none;segment=10;curved=1;rounded=1;sketch=0;" edge="1" parent="O_8s_zXtl1Wq45kXyOu1-1" source="TK5X9V41BlfFNVEwXNrX-16" target="TK5X9V41BlfFNVEwXNrX-26">
          <mxGeometry relative="1" as="geometry">
            <mxPoint x="620" y="950" as="sourcePoint" />
            <mxPoint x="575" y="1020" as="targetPoint" />
          </mxGeometry>
        </mxCell>
        <mxCell id="TK5X9V41BlfFNVEwXNrX-18" value="&lt;div&gt;Détail d&#39;un tournoi à venir&lt;/div&gt;" style="whiteSpace=wrap;html=1;shape=partialRectangle;top=0;left=0;bottom=1;right=0;points=[[0,1],[1,1]];fillColor=#3AC9FF;align=center;verticalAlign=bottom;routingCenterY=0.5;snapToPoint=1;autosize=1;treeFolding=1;treeMoving=1;newEdgeStyle={&quot;edgeStyle&quot;:&quot;entityRelationEdgeStyle&quot;,&quot;startArrow&quot;:&quot;none&quot;,&quot;endArrow&quot;:&quot;none&quot;,&quot;segment&quot;:10,&quot;curved&quot;:1};rounded=1;sketch=0;strokeColor=#3AC9FF;gradientColor=#FFFFFF;fontStyle=1" vertex="1" parent="O_8s_zXtl1Wq45kXyOu1-1">
          <mxGeometry x="574" y="870" width="180" height="20" as="geometry" />
        </mxCell>
        <mxCell id="TK5X9V41BlfFNVEwXNrX-19" value="Classement" style="whiteSpace=wrap;html=1;shape=partialRectangle;top=0;left=0;bottom=1;right=0;points=[[0,1],[1,1]];fillColor=#3AC9FF;align=center;verticalAlign=bottom;routingCenterY=0.5;snapToPoint=1;autosize=1;treeFolding=1;treeMoving=1;newEdgeStyle={&quot;edgeStyle&quot;:&quot;entityRelationEdgeStyle&quot;,&quot;startArrow&quot;:&quot;none&quot;,&quot;endArrow&quot;:&quot;none&quot;,&quot;segment&quot;:10,&quot;curved&quot;:1};rounded=1;sketch=0;strokeColor=#666666;gradientColor=#FFFFFF;fontStyle=1" vertex="1" parent="O_8s_zXtl1Wq45kXyOu1-1">
          <mxGeometry x="730" y="920" width="100" height="20" as="geometry" />
        </mxCell>
        <mxCell id="TK5X9V41BlfFNVEwXNrX-20" value="" style="edgeStyle=entityRelationEdgeStyle;startArrow=none;endArrow=none;segment=10;curved=1;rounded=1;sketch=0;" edge="1" parent="O_8s_zXtl1Wq45kXyOu1-1" source="TK5X9V41BlfFNVEwXNrX-18" target="TK5X9V41BlfFNVEwXNrX-38">
          <mxGeometry relative="1" as="geometry">
            <mxPoint x="725" y="950" as="sourcePoint" />
            <mxPoint x="825" y="950" as="targetPoint" />
          </mxGeometry>
        </mxCell>
        <mxCell id="TK5X9V41BlfFNVEwXNrX-21" value="" style="edgeStyle=entityRelationEdgeStyle;startArrow=none;endArrow=none;segment=10;curved=1;rounded=1;sketch=0;" edge="1" parent="O_8s_zXtl1Wq45kXyOu1-1" source="TK5X9V41BlfFNVEwXNrX-38" target="TK5X9V41BlfFNVEwXNrX-22">
          <mxGeometry relative="1" as="geometry">
            <mxPoint x="800" y="890" as="sourcePoint" />
            <mxPoint x="835" y="960" as="targetPoint" />
          </mxGeometry>
        </mxCell>
        <mxCell id="TK5X9V41BlfFNVEwXNrX-22" value="Créer une équipe" style="whiteSpace=wrap;html=1;shape=partialRectangle;top=0;left=0;bottom=1;right=0;points=[[0,1],[1,1]];fillColor=#3AC9FF;align=center;verticalAlign=bottom;routingCenterY=0.5;snapToPoint=1;autosize=1;treeFolding=1;treeMoving=1;newEdgeStyle={&quot;edgeStyle&quot;:&quot;entityRelationEdgeStyle&quot;,&quot;startArrow&quot;:&quot;none&quot;,&quot;endArrow&quot;:&quot;none&quot;,&quot;segment&quot;:10,&quot;curved&quot;:1};rounded=1;sketch=0;strokeColor=#3AC9FF;gradientColor=#FFFFFF;fontStyle=1" vertex="1" parent="O_8s_zXtl1Wq45kXyOu1-1">
          <mxGeometry x="880" y="870" width="130" height="20" as="geometry" />
        </mxCell>
        <mxCell id="TK5X9V41BlfFNVEwXNrX-23" value="Profil" style="whiteSpace=wrap;html=1;shape=partialRectangle;top=0;left=0;bottom=1;right=0;points=[[0,1],[1,1]];fillColor=#3AC9FF;align=center;verticalAlign=bottom;routingCenterY=0.5;snapToPoint=1;autosize=1;treeFolding=1;treeMoving=1;newEdgeStyle={&quot;edgeStyle&quot;:&quot;entityRelationEdgeStyle&quot;,&quot;startArrow&quot;:&quot;none&quot;,&quot;endArrow&quot;:&quot;none&quot;,&quot;segment&quot;:10,&quot;curved&quot;:1};rounded=1;sketch=0;strokeColor=#666666;gradientColor=#FFFFFF;fontStyle=1" vertex="1" parent="O_8s_zXtl1Wq45kXyOu1-1">
          <mxGeometry x="744" y="960" width="60" height="20" as="geometry" />
        </mxCell>
        <mxCell id="TK5X9V41BlfFNVEwXNrX-24" value="" style="edgeStyle=entityRelationEdgeStyle;startArrow=none;endArrow=none;segment=10;curved=1;rounded=1;sketch=0;" edge="1" parent="O_8s_zXtl1Wq45kXyOu1-1" source="TK5X9V41BlfFNVEwXNrX-23" target="TK5X9V41BlfFNVEwXNrX-16">
          <mxGeometry relative="1" as="geometry">
            <mxPoint x="560" y="1010" as="sourcePoint" />
            <mxPoint x="588" y="990" as="targetPoint" />
          </mxGeometry>
        </mxCell>
        <mxCell id="TK5X9V41BlfFNVEwXNrX-25" value="Réseaux sociaux" style="whiteSpace=wrap;html=1;shape=partialRectangle;top=0;left=0;bottom=1;right=0;points=[[0,1],[1,1]];fillColor=#3AC9FF;align=center;verticalAlign=bottom;routingCenterY=0.5;snapToPoint=1;autosize=1;treeFolding=1;treeMoving=1;newEdgeStyle={&quot;edgeStyle&quot;:&quot;entityRelationEdgeStyle&quot;,&quot;startArrow&quot;:&quot;none&quot;,&quot;endArrow&quot;:&quot;none&quot;,&quot;segment&quot;:10,&quot;curved&quot;:1};rounded=1;sketch=0;strokeColor=#666666;gradientColor=#FFFFFF;fontStyle=1" vertex="1" parent="O_8s_zXtl1Wq45kXyOu1-1">
          <mxGeometry x="744" y="1020" width="130" height="20" as="geometry" />
        </mxCell>
        <mxCell id="TK5X9V41BlfFNVEwXNrX-26" value="Technologie" style="whiteSpace=wrap;html=1;shape=partialRectangle;top=0;left=0;bottom=1;right=0;points=[[0,1],[1,1]];fillColor=#3AC9FF;align=center;verticalAlign=bottom;routingCenterY=0.5;snapToPoint=1;autosize=1;treeFolding=1;treeMoving=1;newEdgeStyle={&quot;edgeStyle&quot;:&quot;entityRelationEdgeStyle&quot;,&quot;startArrow&quot;:&quot;none&quot;,&quot;endArrow&quot;:&quot;none&quot;,&quot;segment&quot;:10,&quot;curved&quot;:1};rounded=1;sketch=0;strokeColor=#666666;gradientColor=#FFFFFF;fontStyle=1" vertex="1" parent="O_8s_zXtl1Wq45kXyOu1-1">
          <mxGeometry x="744" y="990" width="100" height="20" as="geometry" />
        </mxCell>
        <mxCell id="TK5X9V41BlfFNVEwXNrX-27" value="Notifications" style="whiteSpace=wrap;html=1;shape=partialRectangle;top=0;left=0;bottom=1;right=0;points=[[0,1],[1,1]];fillColor=#3AC9FF;align=center;verticalAlign=bottom;routingCenterY=0.5;snapToPoint=1;autosize=1;treeFolding=1;treeMoving=1;newEdgeStyle={&quot;edgeStyle&quot;:&quot;entityRelationEdgeStyle&quot;,&quot;startArrow&quot;:&quot;none&quot;,&quot;endArrow&quot;:&quot;none&quot;,&quot;segment&quot;:10,&quot;curved&quot;:1};rounded=1;sketch=0;strokeColor=#666666;gradientColor=#FFFFFF;fontStyle=1" vertex="1" parent="O_8s_zXtl1Wq45kXyOu1-1">
          <mxGeometry x="744" y="1050" width="100" height="20" as="geometry" />
        </mxCell>
        <mxCell id="TK5X9V41BlfFNVEwXNrX-28" value="" style="edgeStyle=entityRelationEdgeStyle;startArrow=none;endArrow=none;segment=10;curved=1;rounded=1;sketch=0;" edge="1" parent="O_8s_zXtl1Wq45kXyOu1-1" source="TK5X9V41BlfFNVEwXNrX-16" target="TK5X9V41BlfFNVEwXNrX-27">
          <mxGeometry relative="1" as="geometry">
            <mxPoint x="683" y="990" as="sourcePoint" />
            <mxPoint x="754" y="1020" as="targetPoint" />
          </mxGeometry>
        </mxCell>
        <mxCell id="TK5X9V41BlfFNVEwXNrX-29" value="" style="edgeStyle=entityRelationEdgeStyle;startArrow=none;endArrow=none;segment=10;curved=1;rounded=1;sketch=0;entryX=0;entryY=1;entryDx=0;entryDy=0;" edge="1" parent="O_8s_zXtl1Wq45kXyOu1-1" source="TK5X9V41BlfFNVEwXNrX-16" target="TK5X9V41BlfFNVEwXNrX-25">
          <mxGeometry relative="1" as="geometry">
            <mxPoint x="693" y="1000" as="sourcePoint" />
            <mxPoint x="764" y="1030" as="targetPoint" />
          </mxGeometry>
        </mxCell>
        <mxCell id="TK5X9V41BlfFNVEwXNrX-30" value="Notifications" style="whiteSpace=wrap;html=1;shape=partialRectangle;top=0;left=0;bottom=1;right=0;points=[[0,1],[1,1]];fillColor=#3AC9FF;align=center;verticalAlign=bottom;routingCenterY=0.5;snapToPoint=1;autosize=1;treeFolding=1;treeMoving=1;newEdgeStyle={&quot;edgeStyle&quot;:&quot;entityRelationEdgeStyle&quot;,&quot;startArrow&quot;:&quot;none&quot;,&quot;endArrow&quot;:&quot;none&quot;,&quot;segment&quot;:10,&quot;curved&quot;:1};rounded=1;sketch=0;strokeColor=#666666;gradientColor=#FFFFFF;fontStyle=1" vertex="1" parent="O_8s_zXtl1Wq45kXyOu1-1">
          <mxGeometry x="439" y="1160" width="100" height="20" as="geometry" />
        </mxCell>
        <mxCell id="TK5X9V41BlfFNVEwXNrX-31" value="" style="edgeStyle=entityRelationEdgeStyle;startArrow=none;endArrow=none;segment=10;curved=1;rounded=1;sketch=0;" edge="1" parent="O_8s_zXtl1Wq45kXyOu1-1" source="TK5X9V41BlfFNVEwXNrX-1" target="TK5X9V41BlfFNVEwXNrX-30">
          <mxGeometry relative="1" as="geometry">
            <mxPoint x="390" y="1020" as="sourcePoint" />
            <mxPoint x="460" y="1100" as="targetPoint" />
          </mxGeometry>
        </mxCell>
        <mxCell id="TK5X9V41BlfFNVEwXNrX-32" value="Pop up affichant les notifications" style="whiteSpace=wrap;html=1;shape=partialRectangle;top=0;left=0;bottom=1;right=0;points=[[0,1],[1,1]];fillColor=#3AC9FF;align=center;verticalAlign=bottom;routingCenterY=0.5;snapToPoint=1;autosize=1;treeFolding=1;treeMoving=1;newEdgeStyle={&quot;edgeStyle&quot;:&quot;entityRelationEdgeStyle&quot;,&quot;startArrow&quot;:&quot;none&quot;,&quot;endArrow&quot;:&quot;none&quot;,&quot;segment&quot;:10,&quot;curved&quot;:1};rounded=1;sketch=0;strokeColor=#666666;gradientColor=#FFFFFF;fontStyle=1" vertex="1" parent="O_8s_zXtl1Wq45kXyOu1-1">
          <mxGeometry x="574" y="1160" width="220" height="20" as="geometry" />
        </mxCell>
        <mxCell id="TK5X9V41BlfFNVEwXNrX-33" value="" style="edgeStyle=entityRelationEdgeStyle;startArrow=none;endArrow=none;segment=10;curved=1;rounded=1;sketch=0;" edge="1" parent="O_8s_zXtl1Wq45kXyOu1-1" source="TK5X9V41BlfFNVEwXNrX-32" target="TK5X9V41BlfFNVEwXNrX-30">
          <mxGeometry relative="1" as="geometry">
            <mxPoint x="390" y="1020" as="sourcePoint" />
            <mxPoint x="449" y="1190" as="targetPoint" />
          </mxGeometry>
        </mxCell>
        <mxCell id="TK5X9V41BlfFNVEwXNrX-34" value="Déconnexion" style="whiteSpace=wrap;html=1;shape=partialRectangle;top=0;left=0;bottom=1;right=0;points=[[0,1],[1,1]];fillColor=#3AC9FF;align=center;verticalAlign=bottom;routingCenterY=0.5;snapToPoint=1;autosize=1;treeFolding=1;treeMoving=1;newEdgeStyle={&quot;edgeStyle&quot;:&quot;entityRelationEdgeStyle&quot;,&quot;startArrow&quot;:&quot;none&quot;,&quot;endArrow&quot;:&quot;none&quot;,&quot;segment&quot;:10,&quot;curved&quot;:1};rounded=1;sketch=0;strokeColor=#666666;gradientColor=#FFFFFF;fontStyle=1" vertex="1" parent="O_8s_zXtl1Wq45kXyOu1-1">
          <mxGeometry x="569" y="1040" width="110" height="20" as="geometry" />
        </mxCell>
        <mxCell id="TK5X9V41BlfFNVEwXNrX-35" value="" style="edgeStyle=entityRelationEdgeStyle;startArrow=none;endArrow=none;segment=10;curved=1;rounded=1;sketch=0;" edge="1" parent="O_8s_zXtl1Wq45kXyOu1-1" source="TK5X9V41BlfFNVEwXNrX-34" target="TK5X9V41BlfFNVEwXNrX-2">
          <mxGeometry relative="1" as="geometry">
            <mxPoint x="396" y="1070" as="sourcePoint" />
            <mxPoint x="516" y="1000" as="targetPoint" />
          </mxGeometry>
        </mxCell>
        <mxCell id="TK5X9V41BlfFNVEwXNrX-36" value="Validation inscription" style="whiteSpace=wrap;html=1;shape=partialRectangle;top=0;left=0;bottom=1;right=0;points=[[0,1],[1,1]];fillColor=#3AC9FF;align=center;verticalAlign=bottom;routingCenterY=0.5;snapToPoint=1;autosize=1;treeFolding=1;treeMoving=1;newEdgeStyle={&quot;edgeStyle&quot;:&quot;entityRelationEdgeStyle&quot;,&quot;startArrow&quot;:&quot;none&quot;,&quot;endArrow&quot;:&quot;none&quot;,&quot;segment&quot;:10,&quot;curved&quot;:1};rounded=1;sketch=0;strokeColor=#3AC9FF;gradientColor=#FFFFFF;fontStyle=1" vertex="1" collapsed="1" parent="O_8s_zXtl1Wq45kXyOu1-1">
          <mxGeometry x="1040" y="870" width="150" height="20" as="geometry" />
        </mxCell>
        <mxCell id="TK5X9V41BlfFNVEwXNrX-37" value="" style="edgeStyle=entityRelationEdgeStyle;startArrow=none;endArrow=none;segment=10;curved=1;rounded=1;sketch=0;" edge="1" parent="O_8s_zXtl1Wq45kXyOu1-1" source="TK5X9V41BlfFNVEwXNrX-22" target="TK5X9V41BlfFNVEwXNrX-36">
          <mxGeometry relative="1" as="geometry">
            <mxPoint x="810" y="900" as="sourcePoint" />
            <mxPoint x="1030" y="890" as="targetPoint" />
          </mxGeometry>
        </mxCell>
        <mxCell id="TK5X9V41BlfFNVEwXNrX-38" value="S&#39;inscrire" style="whiteSpace=wrap;html=1;shape=partialRectangle;top=0;left=0;bottom=1;right=0;points=[[0,1],[1,1]];fillColor=#3AC9FF;align=center;verticalAlign=bottom;routingCenterY=0.5;snapToPoint=1;autosize=1;treeFolding=1;treeMoving=1;newEdgeStyle={&quot;edgeStyle&quot;:&quot;entityRelationEdgeStyle&quot;,&quot;startArrow&quot;:&quot;none&quot;,&quot;endArrow&quot;:&quot;none&quot;,&quot;segment&quot;:10,&quot;curved&quot;:1};rounded=1;sketch=0;strokeColor=#3AC9FF;gradientColor=#FFFFFF;fontStyle=1" vertex="1" collapsed="1" parent="O_8s_zXtl1Wq45kXyOu1-1">
          <mxGeometry x="770" y="870" width="90" height="20" as="geometry" />
        </mxCell>
        <mxCell id="TK5X9V41BlfFNVEwXNrX-39" value="" style="edgeStyle=entityRelationEdgeStyle;startArrow=none;endArrow=none;segment=10;curved=1;rounded=1;sketch=0;" edge="1" parent="O_8s_zXtl1Wq45kXyOu1-1" target="TK5X9V41BlfFNVEwXNrX-38">
          <mxGeometry relative="1" as="geometry">
            <mxPoint x="800" y="890" as="sourcePoint" />
            <mxPoint x="835" y="890" as="targetPoint" />
          </mxGeometry>
        </mxCell>
        <mxCell id="TK5X9V41BlfFNVEwXNrX-40" value="" style="edgeStyle=entityRelationEdgeStyle;startArrow=none;endArrow=none;segment=10;curved=1;rounded=1;sketch=0;" edge="1" parent="O_8s_zXtl1Wq45kXyOu1-1" source="TK5X9V41BlfFNVEwXNrX-1" target="TK5X9V41BlfFNVEwXNrX-43">
          <mxGeometry relative="1" as="geometry">
            <mxPoint x="385" y="1015" as="sourcePoint" />
            <mxPoint x="435" y="835" as="targetPoint" />
          </mxGeometry>
        </mxCell>
        <mxCell id="TK5X9V41BlfFNVEwXNrX-41" value="Mes tournois" style="whiteSpace=wrap;html=1;shape=partialRectangle;top=0;left=0;bottom=1;right=0;points=[[0,1],[1,1]];fillColor=#3AC9FF;align=center;verticalAlign=bottom;routingCenterY=0.5;snapToPoint=1;autosize=1;treeFolding=1;treeMoving=1;newEdgeStyle={&quot;edgeStyle&quot;:&quot;entityRelationEdgeStyle&quot;,&quot;startArrow&quot;:&quot;none&quot;,&quot;endArrow&quot;:&quot;none&quot;,&quot;segment&quot;:10,&quot;curved&quot;:1};rounded=1;sketch=0;strokeColor=#666666;gradientColor=#FFFFFF;fontStyle=1" vertex="1" parent="O_8s_zXtl1Wq45kXyOu1-1">
          <mxGeometry x="569" y="970" width="110" height="20" as="geometry" />
        </mxCell>
        <mxCell id="TK5X9V41BlfFNVEwXNrX-42" value="" style="edgeStyle=entityRelationEdgeStyle;startArrow=none;endArrow=none;segment=10;curved=1;rounded=1;sketch=0;" edge="1" parent="O_8s_zXtl1Wq45kXyOu1-1" source="TK5X9V41BlfFNVEwXNrX-2" target="TK5X9V41BlfFNVEwXNrX-41">
          <mxGeometry relative="1" as="geometry">
            <mxPoint x="560" y="930" as="sourcePoint" />
            <mxPoint x="589" y="950" as="targetPoint" />
          </mxGeometry>
        </mxCell>
        <mxCell id="TK5X9V41BlfFNVEwXNrX-43" value="Organiser&lt;br&gt;&lt;div&gt;un tournoi&lt;/div&gt;" style="whiteSpace=wrap;html=1;shape=partialRectangle;top=0;left=0;bottom=1;right=0;points=[[0,1],[1,1]];fillColor=#3AC9FF;align=center;verticalAlign=bottom;routingCenterY=0.5;snapToPoint=1;autosize=1;treeFolding=1;treeMoving=1;newEdgeStyle={&quot;edgeStyle&quot;:&quot;entityRelationEdgeStyle&quot;,&quot;startArrow&quot;:&quot;none&quot;,&quot;endArrow&quot;:&quot;none&quot;,&quot;segment&quot;:10,&quot;curved&quot;:1};rounded=1;sketch=0;strokeColor=#666666;gradientColor=#FFFFFF;fontStyle=1" vertex="1" parent="O_8s_zXtl1Wq45kXyOu1-1">
          <mxGeometry x="430" y="810" width="90" height="30" as="geometry" />
        </mxCell>
        <mxCell id="TK5X9V41BlfFNVEwXNrX-44" value="" style="edgeStyle=entityRelationEdgeStyle;startArrow=none;endArrow=none;segment=10;curved=1;rounded=1;sketch=0;" edge="1" parent="O_8s_zXtl1Wq45kXyOu1-1" source="TK5X9V41BlfFNVEwXNrX-43" target="TK5X9V41BlfFNVEwXNrX-48">
          <mxGeometry relative="1" as="geometry">
            <mxPoint x="548" y="720" as="sourcePoint" />
            <mxPoint x="503" y="790" as="targetPoint" />
          </mxGeometry>
        </mxCell>
        <mxCell id="TK5X9V41BlfFNVEwXNrX-45" value="Generalités" style="whiteSpace=wrap;html=1;shape=partialRectangle;top=0;left=0;bottom=1;right=0;points=[[0,1],[1,1]];fillColor=#3AC9FF;align=center;verticalAlign=bottom;routingCenterY=0.5;snapToPoint=1;autosize=1;treeFolding=1;treeMoving=1;newEdgeStyle={&quot;edgeStyle&quot;:&quot;entityRelationEdgeStyle&quot;,&quot;startArrow&quot;:&quot;none&quot;,&quot;endArrow&quot;:&quot;none&quot;,&quot;segment&quot;:10,&quot;curved&quot;:1};rounded=1;sketch=0;strokeColor=#666666;gradientColor=#FFFFFF;fontStyle=1" vertex="1" parent="O_8s_zXtl1Wq45kXyOu1-1">
          <mxGeometry x="569" y="730" width="100" height="20" as="geometry" />
        </mxCell>
        <mxCell id="TK5X9V41BlfFNVEwXNrX-46" value="" style="edgeStyle=entityRelationEdgeStyle;startArrow=none;endArrow=none;segment=10;curved=1;rounded=1;sketch=0;" edge="1" parent="O_8s_zXtl1Wq45kXyOu1-1" source="TK5X9V41BlfFNVEwXNrX-45" target="TK5X9V41BlfFNVEwXNrX-43">
          <mxGeometry relative="1" as="geometry">
            <mxPoint x="488" y="780" as="sourcePoint" />
            <mxPoint x="516" y="760" as="targetPoint" />
          </mxGeometry>
        </mxCell>
        <mxCell id="TK5X9V41BlfFNVEwXNrX-47" value="Parties" style="whiteSpace=wrap;html=1;shape=partialRectangle;top=0;left=0;bottom=1;right=0;points=[[0,1],[1,1]];fillColor=#3AC9FF;align=center;verticalAlign=bottom;routingCenterY=0.5;snapToPoint=1;autosize=1;treeFolding=1;treeMoving=1;newEdgeStyle={&quot;edgeStyle&quot;:&quot;entityRelationEdgeStyle&quot;,&quot;startArrow&quot;:&quot;none&quot;,&quot;endArrow&quot;:&quot;none&quot;,&quot;segment&quot;:10,&quot;curved&quot;:1};rounded=1;sketch=0;strokeColor=#666666;gradientColor=#FFFFFF;fontStyle=1" vertex="1" parent="O_8s_zXtl1Wq45kXyOu1-1">
          <mxGeometry x="574" y="800" width="70" height="20" as="geometry" />
        </mxCell>
        <mxCell id="TK5X9V41BlfFNVEwXNrX-48" value="Score" style="whiteSpace=wrap;html=1;shape=partialRectangle;top=0;left=0;bottom=1;right=0;points=[[0,1],[1,1]];fillColor=#3AC9FF;align=center;verticalAlign=bottom;routingCenterY=0.5;snapToPoint=1;autosize=1;treeFolding=1;treeMoving=1;newEdgeStyle={&quot;edgeStyle&quot;:&quot;entityRelationEdgeStyle&quot;,&quot;startArrow&quot;:&quot;none&quot;,&quot;endArrow&quot;:&quot;none&quot;,&quot;segment&quot;:10,&quot;curved&quot;:1};rounded=1;sketch=0;strokeColor=#666666;gradientColor=#FFFFFF;fontStyle=1" vertex="1" parent="O_8s_zXtl1Wq45kXyOu1-1">
          <mxGeometry x="574" y="760" width="70" height="20" as="geometry" />
        </mxCell>
        <mxCell id="TK5X9V41BlfFNVEwXNrX-49" value="Participants" style="whiteSpace=wrap;html=1;shape=partialRectangle;top=0;left=0;bottom=1;right=0;points=[[0,1],[1,1]];fillColor=#3AC9FF;align=center;verticalAlign=bottom;routingCenterY=0.5;snapToPoint=1;autosize=1;treeFolding=1;treeMoving=1;newEdgeStyle={&quot;edgeStyle&quot;:&quot;entityRelationEdgeStyle&quot;,&quot;startArrow&quot;:&quot;none&quot;,&quot;endArrow&quot;:&quot;none&quot;,&quot;segment&quot;:10,&quot;curved&quot;:1};rounded=1;sketch=0;strokeColor=#666666;gradientColor=#FFFFFF;fontStyle=1" vertex="1" parent="O_8s_zXtl1Wq45kXyOu1-1">
          <mxGeometry x="574" y="830" width="100" height="20" as="geometry" />
        </mxCell>
        <mxCell id="TK5X9V41BlfFNVEwXNrX-50" value="" style="edgeStyle=entityRelationEdgeStyle;startArrow=none;endArrow=none;segment=10;curved=1;rounded=1;sketch=0;" edge="1" parent="O_8s_zXtl1Wq45kXyOu1-1" source="TK5X9V41BlfFNVEwXNrX-43" target="TK5X9V41BlfFNVEwXNrX-49">
          <mxGeometry relative="1" as="geometry">
            <mxPoint x="611" y="760" as="sourcePoint" />
            <mxPoint x="682" y="790" as="targetPoint" />
          </mxGeometry>
        </mxCell>
        <mxCell id="TK5X9V41BlfFNVEwXNrX-51" value="" style="edgeStyle=entityRelationEdgeStyle;startArrow=none;endArrow=none;segment=10;curved=1;rounded=1;sketch=0;entryX=0;entryY=1;entryDx=0;entryDy=0;" edge="1" parent="O_8s_zXtl1Wq45kXyOu1-1" source="TK5X9V41BlfFNVEwXNrX-43" target="TK5X9V41BlfFNVEwXNrX-47">
          <mxGeometry relative="1" as="geometry">
            <mxPoint x="621" y="770" as="sourcePoint" />
            <mxPoint x="692" y="800" as="targetPoint" />
          </mxGeometry>
        </mxCell>
        <mxCell id="TK5X9V41BlfFNVEwXNrX-52" value="Détail d&#39;un tournoi à venir" style="whiteSpace=wrap;html=1;shape=partialRectangle;top=0;left=0;bottom=1;right=0;points=[[0,1],[1,1]];fillColor=#3AC9FF;align=center;verticalAlign=bottom;routingCenterY=0.5;snapToPoint=1;autosize=1;treeFolding=1;treeMoving=1;newEdgeStyle={&quot;edgeStyle&quot;:&quot;entityRelationEdgeStyle&quot;,&quot;startArrow&quot;:&quot;none&quot;,&quot;endArrow&quot;:&quot;none&quot;,&quot;segment&quot;:10,&quot;curved&quot;:1};rounded=1;sketch=0;strokeColor=#3AC9FF;gradientColor=#FFFFFF;fontStyle=1" vertex="1" parent="O_8s_zXtl1Wq45kXyOu1-1">
          <mxGeometry x="744" y="795" width="180" height="20" as="geometry" />
        </mxCell>
        <mxCell id="TK5X9V41BlfFNVEwXNrX-53" value="" style="edgeStyle=entityRelationEdgeStyle;startArrow=none;endArrow=none;segment=10;curved=1;rounded=1;sketch=0;" edge="1" parent="O_8s_zXtl1Wq45kXyOu1-1" source="TK5X9V41BlfFNVEwXNrX-45" target="TK5X9V41BlfFNVEwXNrX-52">
          <mxGeometry relative="1" as="geometry">
            <mxPoint x="609" y="760" as="sourcePoint" />
            <mxPoint x="545" y="855" as="targetPoint" />
          </mxGeometry>
        </mxCell>
        <mxCell id="TK5X9V41BlfFNVEwXNrX-54" value="" style="edgeStyle=entityRelationEdgeStyle;startArrow=none;endArrow=none;segment=10;curved=1;rounded=1;sketch=0;" edge="1" parent="O_8s_zXtl1Wq45kXyOu1-1" source="TK5X9V41BlfFNVEwXNrX-48" target="TK5X9V41BlfFNVEwXNrX-52">
          <mxGeometry relative="1" as="geometry">
            <mxPoint x="709" y="760" as="sourcePoint" />
            <mxPoint x="759" y="810" as="targetPoint" />
          </mxGeometry>
        </mxCell>
        <mxCell id="TK5X9V41BlfFNVEwXNrX-55" value="" style="edgeStyle=entityRelationEdgeStyle;startArrow=none;endArrow=none;segment=10;curved=1;rounded=1;sketch=0;" edge="1" parent="O_8s_zXtl1Wq45kXyOu1-1" source="TK5X9V41BlfFNVEwXNrX-47" target="TK5X9V41BlfFNVEwXNrX-52">
          <mxGeometry relative="1" as="geometry">
            <mxPoint x="694" y="790" as="sourcePoint" />
            <mxPoint x="759" y="810" as="targetPoint" />
          </mxGeometry>
        </mxCell>
        <mxCell id="TK5X9V41BlfFNVEwXNrX-56" value="" style="edgeStyle=entityRelationEdgeStyle;startArrow=none;endArrow=none;segment=10;curved=1;rounded=1;sketch=0;" edge="1" parent="O_8s_zXtl1Wq45kXyOu1-1" source="TK5X9V41BlfFNVEwXNrX-49" target="TK5X9V41BlfFNVEwXNrX-52">
          <mxGeometry relative="1" as="geometry">
            <mxPoint x="680" y="830" as="sourcePoint" />
            <mxPoint x="759" y="810" as="targetPoint" />
          </mxGeometry>
        </mxCell>
        <mxCell id="TK5X9V41BlfFNVEwXNrX-57" value="" style="edgeStyle=entityRelationEdgeStyle;startArrow=none;endArrow=none;segment=10;curved=1;rounded=1;sketch=0;" edge="1" parent="O_8s_zXtl1Wq45kXyOu1-1" source="TK5X9V41BlfFNVEwXNrX-52" target="TK5X9V41BlfFNVEwXNrX-58">
          <mxGeometry relative="1" as="geometry">
            <mxPoint x="545" y="855" as="sourcePoint" />
            <mxPoint x="1000" y="810" as="targetPoint" />
          </mxGeometry>
        </mxCell>
        <mxCell id="TK5X9V41BlfFNVEwXNrX-58" value="Admin liste des participants" style="whiteSpace=wrap;html=1;shape=partialRectangle;top=0;left=0;bottom=1;right=0;points=[[0,1],[1,1]];fillColor=#3AC9FF;align=center;verticalAlign=bottom;routingCenterY=0.5;snapToPoint=1;autosize=1;treeFolding=1;treeMoving=1;newEdgeStyle={&quot;edgeStyle&quot;:&quot;entityRelationEdgeStyle&quot;,&quot;startArrow&quot;:&quot;none&quot;,&quot;endArrow&quot;:&quot;none&quot;,&quot;segment&quot;:10,&quot;curved&quot;:1};rounded=1;sketch=0;strokeColor=#3AC9FF;gradientColor=#FFFFFF;fontStyle=1" vertex="1" parent="O_8s_zXtl1Wq45kXyOu1-1">
          <mxGeometry x="940" y="795" width="190" height="20" as="geometry" />
        </mxCell>
        <mxCell id="TK5X9V41BlfFNVEwXNrX-60" value="Admin des tournois" style="whiteSpace=wrap;html=1;shape=partialRectangle;top=0;left=0;bottom=1;right=0;points=[[0,1],[1,1]];fillColor=none;align=center;verticalAlign=bottom;routingCenterY=0.5;snapToPoint=1;autosize=1;treeFolding=1;treeMoving=1;newEdgeStyle={&quot;edgeStyle&quot;:&quot;entityRelationEdgeStyle&quot;,&quot;startArrow&quot;:&quot;none&quot;,&quot;endArrow&quot;:&quot;none&quot;,&quot;segment&quot;:10,&quot;curved&quot;:1};rounded=1;sketch=0;fontStyle=1" vertex="1" parent="O_8s_zXtl1Wq45kXyOu1-1">
          <mxGeometry x="100" y="1020" width="140" height="20" as="geometry" />
        </mxCell>
        <mxCell id="TK5X9V41BlfFNVEwXNrX-61" value="Admin des utilisateurs" style="whiteSpace=wrap;html=1;shape=partialRectangle;top=0;left=0;bottom=1;right=0;points=[[0,1],[1,1]];align=center;verticalAlign=bottom;routingCenterY=0.5;snapToPoint=1;autosize=1;treeFolding=1;treeMoving=1;newEdgeStyle={&quot;edgeStyle&quot;:&quot;entityRelationEdgeStyle&quot;,&quot;startArrow&quot;:&quot;none&quot;,&quot;endArrow&quot;:&quot;none&quot;,&quot;segment&quot;:10,&quot;curved&quot;:1};rounded=1;sketch=0;fontStyle=1;fillColor=none;" vertex="1" parent="O_8s_zXtl1Wq45kXyOu1-1">
          <mxGeometry x="80" y="990" width="160" height="20" as="geometry" />
        </mxCell>
        <mxCell id="TK5X9V41BlfFNVEwXNrX-62" value="" style="edgeStyle=entityRelationEdgeStyle;startArrow=none;endArrow=none;segment=10;curved=1;rounded=1;sketch=0;" edge="1" parent="O_8s_zXtl1Wq45kXyOu1-1" source="TK5X9V41BlfFNVEwXNrX-1" target="TK5X9V41BlfFNVEwXNrX-61">
          <mxGeometry relative="1" as="geometry">
            <mxPoint x="390" y="1020" as="sourcePoint" />
            <mxPoint x="440" y="850" as="targetPoint" />
          </mxGeometry>
        </mxCell>
        <mxCell id="TK5X9V41BlfFNVEwXNrX-63" value="" style="edgeStyle=entityRelationEdgeStyle;startArrow=none;endArrow=none;segment=10;curved=1;rounded=1;sketch=0;" edge="1" parent="O_8s_zXtl1Wq45kXyOu1-1" source="TK5X9V41BlfFNVEwXNrX-1" target="TK5X9V41BlfFNVEwXNrX-60">
          <mxGeometry relative="1" as="geometry">
            <mxPoint x="390" y="1020" as="sourcePoint" />
            <mxPoint x="440" y="850" as="targetPoint" />
          </mxGeometry>
        </mxCell>
        <mxCell id="TK5X9V41BlfFNVEwXNrX-65" value="&lt;font style=&quot;font-size: 18px;&quot;&gt;statut admin&lt;/font&gt;" style="text;strokeColor=none;fillColor=none;html=1;fontSize=18;fontStyle=1;verticalAlign=middle;align=center;rounded=1;dashed=1;sketch=0;fontColor=#000000;strokeWidth=0;" vertex="1" parent="O_8s_zXtl1Wq45kXyOu1-1">
          <mxGeometry x="110" y="955" width="100" height="40" as="geometry" />
        </mxCell>
        <mxCell id="TK5X9V41BlfFNVEwXNrX-66" value="" style="rounded=0;whiteSpace=wrap;html=1;sketch=0;fontSize=18;fontColor=#000000;strokeColor=#3AC9FF;strokeWidth=2;fillColor=none;gradientColor=#FFFFFF;" vertex="1" parent="O_8s_zXtl1Wq45kXyOu1-1">
          <mxGeometry x="60" y="945" width="200" height="130" as="geometry" />
        </mxCell>
      </root>
    </mxGraphModel>
  </diagram>
</mxfile>
